/* XPM */
static char *result[] = {
/* columns rows colors chars-per-pixel */
"32 32 13 1 ",
"  c #45293F",
". c #7A3045",
"X c #694F62",
"o c #9E4539",
"O c #CD683D",
"+ c #E6904E",
"@ c #FBB954",
"# c #9CDB43",
"$ c #D6F264",
"% c #7F708A",
"& c #9BABB2",
"* c #C7DCD0",
"= c white",
/* pixels */
"################################",
"################################",
"################################",
"###############$$#     ##$#$$###",
"###$$###########$ ==* @ ########",
"################ ==** Oo #######",
"############### ==**&% . #######",
"############## ==**&%&%    #####",
"############# ==**&%&%X%&==    #",
"############# =**&%&%X%&*==*=%X ",
"############# **&%&%X%&*==**=%X ",
"#######$#$### *&%&%X%&*==**=&%X ",
"########$### @ %&%X%&*==**=&*%X ",
"########### @+O %X%&*==**=&*%XX ",
"########## @+Oo X%&*==**=&*%X%X ",
"######### @+Oo.  &*==**=&*%X%XX ",
"#######$ @+Oo. # ===**=&*%X%XX #",
"####### @+Oo. ## ==**=&*%X%XX ##",
"###### @+Oo. #### **=&*%X%XX ###",
"##### @+Oo. $#### ==&*%X%XX ####",
"#### @+Oo. $##### %%%%X%XX #####",
"### @+Oo. ####### XXXXXXX ######",
"## @+Oo. #########       #######",
"# @+Oo. ########################",
" @+Oo. $########################",
" +Oo. ##########################",
" ... $$#########################",
"    ##########$###########$$####",
"##############$$#########$#$####",
"#######$########################",
"################################",
"################################"
};
