/* XPM */
static char *result[] = {
/* columns rows colors chars-per-pixel */
"32 32 3 1 ",
"  c #9CDB43",
". c #D6F264",
"X c white",
/* pixels */
"                                ",
"                                ",
"                                ",
"               ..        . ..   ",
"   ..           ..              ",
"                                ",
"                                ",
"                                ",
"                                ",
"                         .      ",
"                .               ",
"       . .       .              ",
"        .       .               ",
"                                ",
"                                ",
"                        .       ",
"       .               ...      ",
"                                ",
"                                ",
"            .                   ",
"           .                    ",
"                  ..            ",
"                                ",
"                                ",
"    .  .                        ",
"     .                          ",
"     ..                         ",
"              .           ..    ",
"              ..         . .    ",
"       .                        ",
"                                ",
"                                "
};
