/* XPM */
static char *result[] = {
/* columns rows colors chars-per-pixel */
"40 40 117 2 ",
"   c #1D0000",
".  c #1E0100",
"X  c #270100",
"o  c #270400",
"O  c #2B0401",
"+  c #2D0500",
"@  c #2C0401",
"#  c #2E0500",
"$  c #2F0500",
"%  c #2C0402",
"&  c #300500",
"*  c #300501",
"=  c #350600",
"-  c #350602",
";  c #310605",
":  c #3C0100",
">  c #390701",
",  c #3C0400",
"<  c #3A0704",
"1  c #410200",
"2  c #410600",
"3  c #450600",
"4  c #450800",
"5  c #6D0400",
"6  c #6F0400",
"7  c #6E0700",
"8  c #6F0800",
"9  c #730C00",
"0  c #740D00",
"q  c #760E00",
"w  c #740D02",
"e  c #910C06",
"r  c #9D1301",
"t  c #9E1402",
"y  c #9F1402",
"u  c #90150E",
"i  c #A01405",
"p  c #A31504",
"a  c #A91501",
"s  c #A91600",
"d  c #AA1600",
"f  c #AA1601",
"g  c #AB1601",
"h  c #AB1605",
"j  c #AE1704",
"k  c #A3160F",
"l  c #BE241D",
"z  c #A3382C",
"x  c #D71D00",
"c  c #C01814",
"v  c #C01E17",
"b  c #E21F0C",
"n  c #E82001",
"m  c #EA2100",
"M  c #EC2103",
"N  c #EA2105",
"B  c #F32402",
"V  c #F92500",
"C  c #FC2500",
"Z  c #FF2700",
"A  c #F2200A",
"S  c #F92209",
"D  c #FA2209",
"F  c #FB2209",
"G  c #FE2309",
"H  c #FE260B",
"J  c #FA230C",
"K  c #FE260C",
"L  c #FD2315",
"P  c #FF2516",
"I  c #FF2517",
"U  c #EF2826",
"Y  c #FE2522",
"T  c #FC2826",
"R  c #FF2A27",
"E  c #FF2B27",
"W  c #FF2F2B",
"Q  c #FF302C",
"!  c #FF312D",
"~  c #FE2D33",
"^  c #FD373C",
"/  c #FF393F",
"(  c #FC3B3F",
")  c #FE3D3E",
"_  c #FE3C40",
"`  c #FF3E43",
"'  c #BF5047",
"]  c #EA4945",
"[  c #FC4549",
"{  c #FF4748",
"}  c #FF4649",
"|  c #FF4A4C",
" . c #FF4B4D",
".. c #FD4D4F",
"X. c #F6504E",
"o. c #EA5755",
"O. c #EF5A55",
"+. c #FF5052",
"@. c #FE5355",
"#. c #FF5358",
"$. c #FF5F60",
"%. c #FF6062",
"&. c #F66E65",
"*. c #EF7471",
"=. c #EA7873",
"-. c #EA7C76",
";. c #FF7771",
":. c #FF7D7D",
">. c #FF807C",
",. c #FD847C",
"<. c #FD8C7F",
"1. c #FF8A85",
"2. c #FF898B",
"3. c #FF9496",
"4. c #FFB3AD",
"5. c #FFB9AE",
"6. c None",
/* pixels */
"6.6.6.6.6.6.6.6.6.6.6.6.6.6.6.6.6.6.6.6.6.6.6.6.6.6.6.6.6.6.6.6.6.6.6.6.6.6.6.6.",
"6.6.6.6.6.6.6.6.6.6.6.6.6.6.6.6.6.6.6.6.6.6.6.6.6.6.6.6.6.6.6.6.6.6.6.6.6.6.6.6.",
"6.6.6.6.6.6.6.6.6.6.6.6.6.6.6.6.6.6.6.6.6.6.6.6.6.6.6.6.6.6.6.6.6.6.6.6.6.6.6.6.",
"6.6.6.6.6.6.6.6.6.6.6.6.6.6.6.6.6.6.6.6.6.6.6.6.6.6.6.6.6.6.6.6.6.6.6.6.6.6.6.6.",
"6.6.6.6.6.6.6.6.6.6.6.6.6.6.6.6.6.6.6.6.6.6.6.6.6.6.6.6.6.6.6.6.6.6.6.6.6.6.6.6.",
"6.6.6.6.6.6.6.6.6.6.6.6.6.6.6.6.6.6.6.6.6.6.6.6.6.6.6.6.6.6.6.6.6.6.6.6.6.6.6.6.",
"6.6.6.6.6.6.6.6.6.6.6.6.6.6.6.6.6.6.6.6.6.6.6.6.6.6.6.6.6.6.6.6.6.6.6.6.6.6.6.6.",
"6.6.6.6.6.6.6.6.6.6.6.6.6.6.6.6.6.6.6.6.6.6.6.6.6.6.6.6.6.6.6.6.6.6.6.6.6.6.6.6.",
"6.6.6.6.6.6.6.6.6.6.6.6.6.6.6.6.6.6.6.6.6.6.6.6.6.6.6.6.6.6.6.6.6.6.6.6.6.6.6.6.",
"6.6.6.6.6.6.6.6.6.6.6.6.6.6.6.6.6.6.6.6.6.6.6.6.6.6.6.6.6.6.6.6.6.6.6.6.6.6.6.6.",
"6.6.6.6.6.6.6.6.6.6.6.6.6.6.6.6.6.6.6.6.6.6.6.6.6.6.6.6.6.6.6.6.6.6.6.6.6.6.6.6.",
"6.6.6.6.6.6.6.6.6.6.6.6.6.6.6.6.6.6.6.6.6.6.6.6.6.6.6.6.6.6.6.6.6.6.6.6.6.6.6.6.",
"6.6.6.6.6.6.6.6.6.6.6.6.6.6.6.6.6.6.6.6.6.6.6.6.6.6.6.6.6.6.6.6.6.6.6.6.6.6.6.6.",
"6.6.6.6.6.6.6.6.6.6.6.6.6.6.6.6.6.6.6.6.6.6.6.6.6.6.6.6.6.6.6.6.6.6.6.6.6.6.6.6.",
"6.6.6.6.6.6.6.6.6.6.6.6.6.6.6.1 5 8 o 6.6.X 6 7 2 6.6.6.6.6.6.6.6.6.6.6.6.6.6.6.",
"6.6.6.6.6.6.6.6.6.6.6.6.6.6.: ' =.] k .   z -.o.v , 6.6.6.6.6.6.6.6.6.6.6.6.6.6.",
"6.6.6.6.6.6.6.6.6.6.6.6.6.4 c @.3.5.&.e u X.2.4.<.l 3 6.6.6.6.6.6.6.6.6.6.6.6.6.",
"6.6.6.6.6.6.6.6.6.6.6.6.6.0 b T #.,.1.*.O.} +.>.;.U 9 6.6.6.6.6.6.6.6.6.6.6.6.6.",
"6.6.6.6.6.6.6.6.6.6.6.6.6.q x S E / $.:.%.{ | ` R A w 6.6.6.6.6.6.6.6.6.6.6.6.6.",
"6.6.6.6.6.6.6.6.6.6.6.6.6.= p N G Q ^ )  ...[ W F j - 6.6.6.6.6.6.6.6.6.6.6.6.6.",
"6.6.6.6.6.6.6.6.6.6.6.6.6.6.; y m H Y ~ _ ( ! D d @ 6.6.6.6.6.6.6.6.6.6.6.6.6.6.",
"6.6.6.6.6.6.6.6.6.6.6.6.6.6.6.& i m K I L P J s + 6.6.6.6.6.6.6.6.6.6.6.6.6.6.6.",
"6.6.6.6.6.6.6.6.6.6.6.6.6.6.6.6.* t n C Z V h % 6.6.6.6.6.6.6.6.6.6.6.6.6.6.6.6.",
"6.6.6.6.6.6.6.6.6.6.6.6.6.6.6.6.6.$ r M B g O 6.6.6.6.6.6.6.6.6.6.6.6.6.6.6.6.6.",
"6.6.6.6.6.6.6.6.6.6.6.6.6.6.6.6.6.6.# f a + 6.6.6.6.6.6.6.6.6.6.6.6.6.6.6.6.6.6.",
"6.6.6.6.6.6.6.6.6.6.6.6.6.6.6.6.6.6.6.< > 6.6.6.6.6.6.6.6.6.6.6.6.6.6.6.6.6.6.6.",
"6.6.6.6.6.6.6.6.6.6.6.6.6.6.6.6.6.6.6.6.6.6.6.6.6.6.6.6.6.6.6.6.6.6.6.6.6.6.6.6.",
"6.6.6.6.6.6.6.6.6.6.6.6.6.6.6.6.6.6.6.6.6.6.6.6.6.6.6.6.6.6.6.6.6.6.6.6.6.6.6.6.",
"6.6.6.6.6.6.6.6.6.6.6.6.6.6.6.6.6.6.6.6.6.6.6.6.6.6.6.6.6.6.6.6.6.6.6.6.6.6.6.6.",
"6.6.6.6.6.6.6.6.6.6.6.6.6.6.6.6.6.6.6.6.6.6.6.6.6.6.6.6.6.6.6.6.6.6.6.6.6.6.6.6.",
"6.6.6.6.6.6.6.6.6.6.6.6.6.6.6.6.6.6.6.6.6.6.6.6.6.6.6.6.6.6.6.6.6.6.6.6.6.6.6.6.",
"6.6.6.6.6.6.6.6.6.6.6.6.6.6.6.6.6.6.6.6.6.6.6.6.6.6.6.6.6.6.6.6.6.6.6.6.6.6.6.6.",
"6.6.6.6.6.6.6.6.6.6.6.6.6.6.6.6.6.6.6.6.6.6.6.6.6.6.6.6.6.6.6.6.6.6.6.6.6.6.6.6.",
"6.6.6.6.6.6.6.6.6.6.6.6.6.6.6.6.6.6.6.6.6.6.6.6.6.6.6.6.6.6.6.6.6.6.6.6.6.6.6.6.",
"6.6.6.6.6.6.6.6.6.6.6.6.6.6.6.6.6.6.6.6.6.6.6.6.6.6.6.6.6.6.6.6.6.6.6.6.6.6.6.6.",
"6.6.6.6.6.6.6.6.6.6.6.6.6.6.6.6.6.6.6.6.6.6.6.6.6.6.6.6.6.6.6.6.6.6.6.6.6.6.6.6.",
"6.6.6.6.6.6.6.6.6.6.6.6.6.6.6.6.6.6.6.6.6.6.6.6.6.6.6.6.6.6.6.6.6.6.6.6.6.6.6.6.",
"6.6.6.6.6.6.6.6.6.6.6.6.6.6.6.6.6.6.6.6.6.6.6.6.6.6.6.6.6.6.6.6.6.6.6.6.6.6.6.6.",
"6.6.6.6.6.6.6.6.6.6.6.6.6.6.6.6.6.6.6.6.6.6.6.6.6.6.6.6.6.6.6.6.6.6.6.6.6.6.6.6.",
"6.6.6.6.6.6.6.6.6.6.6.6.6.6.6.6.6.6.6.6.6.6.6.6.6.6.6.6.6.6.6.6.6.6.6.6.6.6.6.6."
};
