/* XPM */
static char *result[] = {
/* columns rows colors chars-per-pixel */
"40 40 33 1 ",
"  c #151515",
". c #181818",
"X c #191919",
"o c gray10",
"O c #1E1E1E",
"+ c gray12",
"@ c #202020",
"# c gray13",
"$ c #222222",
"% c #232323",
"& c gray14",
"* c #252525",
"= c gray15",
"- c #272727",
"; c #282828",
": c gray16",
"> c #2A2A2A",
", c gray17",
"< c #2C2C2C",
"1 c #2D2D2D",
"2 c gray18",
"3 c #2F2F2F",
"4 c gray19",
"5 c #313131",
"6 c #323232",
"7 c gray20",
"8 c #343434",
"9 c #353535",
"0 c gray21",
"q c #373737",
"w c #3A3A3A",
"e c gray23",
"r c None",
/* pixels */
"rrrrrrrrrrrrrrrrrrrrrrrrrrrrrrrrrrrrrrrr",
"rrrrrrrrrrrrrrrrrrrrrrrrrrrrrrrrrrrrrrrr",
"rrrrrrrrrrrrrrrrrrrrrrrrrrrrrrrrrrrrrrrr",
"rrrrrrrrrrrrrrrrrrrrrrrrrrrrrrrrrrrrrrrr",
"rrrrrrrrrrrrrrrrrrrrrrrrrrrrrrrrrrrrrrrr",
"rrrrrrrrrrrrrrrrrrrrrrrrrrrrrrrrrrrrrrrr",
"rrrrrrrrrrrrrrrrrrrrrrrrrrrrrrrrrrrrrrrr",
"rrrrrrrrrrrrrrrrrrrrrrrrrrrrrrrrrrrrrrrr",
"rrrrrrrrrrrrrrrrrrrrrrrrrrrrrrrrrrrrrrrr",
"rrrrrrrrrrrrrrrrrrrrrrrrrrrrrrrrrrrrrrrr",
"rrrrrrrrrrrrrrrrrrrrrrrrrrrrrrrrrrrrrrrr",
"rrrrrrrrrrrrrrrrrrrrrrrrrrrrrrrrrrrrrrrr",
"rrrrrrrrrrrrrrrrrrrrrrrrrrrrrrrrrrrrrrrr",
"rrrrrrrrrrrrrrrrrrrrrrrrrrrrrrrrrrrrrrrr",
"rrrrrrrrrrrrrrr@12 rr 21@rrrrrrrrrrrrrrr",
"rrrrrrrrrrrrrr$2:35*=2:18$rrrrrrrrrrrrrr",
"rrrrrrrrrrrrr#8>$O;ew,%+&7@rrrrrrrrrrrrr",
"rrrrrrrrrrrrr391:*%->,:**63rrrrrrrrrrrrr",
"rrrrrrrrrrrrr3q42,;*;>>,183rrrrrrrrrrrrr",
"rrrrrrrrrrrrr.0841<<>>,169.rrrrrrrrrrrrr",
"rrrrrrrrrrrrrr.08321<<<69Xrrrrrrrrrrrrrr",
"rrrrrrrrrrrrrrrX98433359Xrrrrrrrrrrrrrrr",
"rrrrrrrrrrrrrrrr.984378Xrrrrrrrrrrrrrrrr",
"rrrrrrrrrrrrrrrrr.0769Xrrrrrrrrrrrrrrrrr",
"rrrrrrrrrrrrrrrrrr.0q.rrrrrrrrrrrrrrrrrr",
"rrrrrrrrrrrrrrrrrrroorrrrrrrrrrrrrrrrrrr",
"rrrrrrrrrrrrrrrrrrrrrrrrrrrrrrrrrrrrrrrr",
"rrrrrrrrrrrrrrrrrrrrrrrrrrrrrrrrrrrrrrrr",
"rrrrrrrrrrrrrrrrrrrrrrrrrrrrrrrrrrrrrrrr",
"rrrrrrrrrrrrrrrrrrrrrrrrrrrrrrrrrrrrrrrr",
"rrrrrrrrrrrrrrrrrrrrrrrrrrrrrrrrrrrrrrrr",
"rrrrrrrrrrrrrrrrrrrrrrrrrrrrrrrrrrrrrrrr",
"rrrrrrrrrrrrrrrrrrrrrrrrrrrrrrrrrrrrrrrr",
"rrrrrrrrrrrrrrrrrrrrrrrrrrrrrrrrrrrrrrrr",
"rrrrrrrrrrrrrrrrrrrrrrrrrrrrrrrrrrrrrrrr",
"rrrrrrrrrrrrrrrrrrrrrrrrrrrrrrrrrrrrrrrr",
"rrrrrrrrrrrrrrrrrrrrrrrrrrrrrrrrrrrrrrrr",
"rrrrrrrrrrrrrrrrrrrrrrrrrrrrrrrrrrrrrrrr",
"rrrrrrrrrrrrrrrrrrrrrrrrrrrrrrrrrrrrrrrr",
"rrrrrrrrrrrrrrrrrrrrrrrrrrrrrrrrrrrrrrrr"
};
