/* XPM */
static char *result[] = {
/* columns rows colors chars-per-pixel */
"32 32 7 1 ",
"  c black",
". c #603813",
"X c #BD7432",
"o c #E17E26",
"O c #989898",
"+ c white",
"@ c None",
/* pixels */
"@@@@@@@@@@@@@@@@@@@@@@@@@@@@@@@@",
"@@@@@@@@@@@@@@@@@@@@@@@@@@@@@@@@",
"@@@@@@@@@@@@@@@@@@@@@@@@@@@@@@@@",
"@@@@@@@@@@@@@@@@@@@@@@@@@@@@@@@@",
"@@@@@@@@@@@@@@@@@@@@@@@@@@@@@@@@",
"@@@@@@@@@@@@@@ @@@@@@@@@@@@@@@@@",
"@@@@@@@@@@@@@ o @@@@@@@@@@@@@@@@",
"@@@@@@@@@@@@ X. @@@@@@@@@@@@@@@@",
"@@@@@@@@@@@ XX.. @@@@@@@@@@@@@@@",
"@@@@@@@@@@@ XXXoX @@@@@@@@@@@@@@",
"@@@@@@@@@@ ooXoooo @@@@@@@@@@@@@",
"@@@@@@@@@ XXX XoooX @@@@@@@@@@@@",
"@@@@@@@@@@ X XoX  XX @@@@@@@@@@@",
"@@@@@@@@@ XXX XX+ X++ @@@@@@@@@@",
"@@@@@@@@@ .o XXX+ X+  @@@@@@@@@@",
"@@@@@@@@@@ .o oXXXXOO @@@@@@@@@@",
"@@@@@@@@ @@ .o.XXXo  @@@@@@@@@@@",
"@@@@@@@ + @  Xooo.  @@@@@@@@@@@@",
"@@@@@@@ ++  Xo  ooXo @@@@@@@@@@@",
"@@@@@@@ oo  X oo oo. @@@@@@@@@@@",
"@@@@@@@@ X o  oo oXo @@@@@@@@@@@",
"@@@@@@@@ X .o +++ o. @@@@@@@@@@@",
"@@@@@@@@@ . . +++ . @@@@@@@@@@@@",
"@@@@@@@@@@@   ++     @@@@@@@@@@@",
"@@@@@@@@@@       o    @@@@@@@@@@",
"@@@@@@@@@@   oo..     @@@@@@@@@@",
"@@@@@@@@@@@          @@@@@@@@@@@",
"@@@@@@@@@@@@@      @@@@@@@@@@@@@",
"@@@@@@@@@@@@@@@@@@@@@@@@@@@@@@@@",
"@@@@@@@@@@@@@@@@@@@@@@@@@@@@@@@@",
"@@@@@@@@@@@@@@@@@@@@@@@@@@@@@@@@",
"@@@@@@@@@@@@@@@@@@@@@@@@@@@@@@@@"
};
