/* XPM */
static char *result[] = {
/* columns rows colors chars-per-pixel */
"32 32 7 1 ",
"  c black",
". c #603813",
"X c #BD7432",
"o c #E17E26",
"O c #989898",
"+ c white",
"@ c None",
/* pixels */
"@@@@@@@@@@@@@@@@@@@@@@@@@@@@@@@@",
"@@@@@@@@@@@@@@@@@@@@@@@@@@@@@@@@",
"@@@@@@@@@@@@@@@@@@@@@@@@@@@@@@@@",
"@@@@@@@@@@@@@@@@@@@@@@@@@@@@@@@@",
"@@@@@@@@@@@@@@@@@@@@@@@@@@@@@@@@",
"@@@@@@@@@@@@@@@@@ @@@@@@@@@@@@@@",
"@@@@@@@@@@@@@@@@ o @@@@@@@@@@@@@",
"@@@@@@@@@@@@@@@@ .X @@@@@@@@@@@@",
"@@@@@@@@@@@@@@@ ..XX @@@@@@@@@@@",
"@@@@@@@@@@@@@@ XoXXX @@@@@@@@@@@",
"@@@@@@@@@@@@@ ooooXoo @@@@@@@@@@",
"@@@@@@@@@@@@ XoooX XXX @@@@@@@@@",
"@@@@@@@@@@@ XX  XoX X @@@@@@@@@@",
"@@@@@@@@@@ ++X +XX XXX @@@@@@@@@",
"@@@@@@@@@@  +X +XXX o. @@@@@@@@@",
"@@@@@@@@@@ OOXXXXo o. @@@@@@@@@@",
"@@@@@@@@@@@  oXXX.o. @@ @@@@@@@@",
"@@@@@@@@@@@@  .oooX  @ + @@@@@@@",
"@@@@@@@@@@@ oXoo  oX  ++ @@@@@@@",
"@@@@@@@@@@@ .oo oo X  oo @@@@@@@",
"@@@@@@@@@@@ oXo oo  o X @@@@@@@@",
"@@@@@@@@@@@ .o +++ o. X @@@@@@@@",
"@@@@@@@@@@@@ . +++ . . @@@@@@@@@",
"@@@@@@@@@@@     ++   @@@@@@@@@@@",
"@@@@@@@@@@    o       @@@@@@@@@@",
"@@@@@@@@@@     ..oo   @@@@@@@@@@",
"@@@@@@@@@@@          @@@@@@@@@@@",
"@@@@@@@@@@@@@      @@@@@@@@@@@@@",
"@@@@@@@@@@@@@@@@@@@@@@@@@@@@@@@@",
"@@@@@@@@@@@@@@@@@@@@@@@@@@@@@@@@",
"@@@@@@@@@@@@@@@@@@@@@@@@@@@@@@@@",
"@@@@@@@@@@@@@@@@@@@@@@@@@@@@@@@@"
};
