/* XPM */
static char *result[] = {
/* columns rows colors chars-per-pixel */
"32 32 96 2 ",
"   c #020100",
".  c #0A0500",
"X  c #0F0800",
"o  c #0C0C0C",
"O  c #120900",
"+  c #1B0E00",
"@  c #151515",
"#  c gray10",
"$  c #231200",
"%  c #2A1500",
"&  c #341A00",
"*  c #3D1E00",
"=  c gray15",
"-  c #3F3F3F",
";  c #432200",
":  c #4A2500",
">  c #4F2800",
",  c #532A01",
"<  c #592D01",
"1  c #5F3000",
"2  c #49341E",
"3  c #533618",
"4  c #643200",
"5  c #6A3600",
"6  c #6F3800",
"7  c #733A00",
"8  c #43372B",
"9  c #463C32",
"0  c #7E4000",
"q  c #6E4011",
"w  c #724313",
"e  c #595755",
"r  c #5B5B5B",
"t  c #666666",
"y  c #6C6C6C",
"u  c #747474",
"i  c #7D7D7D",
"p  c #814201",
"a  c #894500",
"s  c #894906",
"d  c #864809",
"f  c #944B00",
"g  c #9B4F00",
"h  c #9C5206",
"j  c #A35200",
"k  c #AA5600",
"l  c #AE5800",
"z  c #B35B00",
"x  c #B95E00",
"c  c #BE6000",
"v  c #B2600C",
"b  c #BD660E",
"n  c #C46300",
"m  c #CA6600",
"M  c #CE6900",
"N  c #C6690A",
"B  c #CF6D09",
"V  c #D36B01",
"C  c #DA6E00",
"Z  c #D77007",
"A  c #DE7101",
"S  c #DC740B",
"D  c #CB7318",
"F  c #DD7811",
"G  c #D47A1D",
"H  c #E37300",
"J  c #EA7600",
"K  c #ED7902",
"L  c #E27608",
"P  c #E3790D",
"I  c #E87A0A",
"U  c #F47B00",
"Y  c #FA7E00",
"T  c #E37C12",
"R  c #E97F12",
"E  c #FD8000",
"W  c #F3820D",
"Q  c #EB8216",
"!  c #E3811C",
"~  c #ED851A",
"^  c #EE881E",
"/  c #F38310",
"(  c #F48A1E",
")  c #F48D22",
"_  c #868686",
"`  c #A2A2A2",
"'  c #A9A9A9",
"]  c gray73",
"[  c gray76",
"{  c #C8C8C8",
"}  c #DBDBDB",
"|  c #E7E7E7",
" . c gray92",
".. c #F6F6F6",
"X. c #FEFEFE",
"o. c None",
/* pixels */
"o.o.o.o.o.o.o.o.o.o.o.o.o.o.o.o.o.o.o.o.o.o.o.o.o.o.o.o.o.o.o.o.",
"o.o.o.& 7 , o.o.o.o.o.o.o.o.o.o.o.o.o.o.o.o.o.o.o.o., 7 & o.o.o.",
"o.. l E Y 7 o.o.O   o.o.o.o.o.o.o.o.o.o.o.o.  O o.o.6 Y E l . o.",
"o.l E Y Y ; o.O n 0 o.o.o.o.o.o.o.o.o.o.o.o.0 n + o.; Y Y E l o.",
"% Y U U U + O x H V . o.o.o.o.o.o.o.o.o.o.. C H x O + U U U Y % ",
": U U K C . z H A C $ o.o.o.o.o.o.o.o.o.o.$ V C H x . C J U U : ",
"$ J J H x l C C V m . o.o.o.o.o.o.o.o.o.o.. n C V C z x H J J $ ",
"o.a H C C C V V M 4 o.o.o.o.o.o.o.o.o.o.o.o.4 M V C V C H H a o.",
"o.. p C V M M n 4   o.@ _ ` - o.  i ` r   o.  4 n m V V V p   o.",
"o.o.o.+ > 4 : O o.o.o } X.X...= _ X.X.X._ o.o.o.O : 1 > + o.o.o.",
"o.o.o.o.j * o.o.o.o.t X.X.] X.t { } } X...o o.o.o.o.* j o.o.o.o.",
"o.o.o.o.* x   o.o.o.i X. .  [ 9 ` r r X.X.# o.o.o.  x * o.o.o.o.",
"o.o.o.o.o.6 f . o.. - ..X.| ' w 8 } ..X.[ *   o.. f 7 o.o.o.o.o.",
"o.o.o.o.o.o.< k + z b 9 i e w ) G 2 u y 3 Q j + k < o.o.o.o.o.o.",
"o.o.o.o.o.o.o.+ 6 W ( ^ D ! ( ( ( ) G G ) ) / 4 + o.o.o.o.o.o.o.",
"o.o.o.    o.o.. A ~ Q / Q / ~ ~ ^ ~ ~ ~ ^ ^ ( V   o.o.    o.o.o.",
"o.o.4 C C j > ; I R R R R R Q Q Q Q Q Q Q Q ~ I & > j C C 4 o.o.",
"o.* x ; + < g 4 L P P P T T T T T T T T F ! ! P , k < + ; x * o.",
"  &   o.o.o.  5 A S S h s N S S S F b d v F F S <   o.o.o.  &   ",
"  o.o.o.o.o.o.4 C V Z V n 7 < , < < p B Z S S Z , o.o.o.o.o.o.  ",
"o.o.o.O * * $ 4 V V M V M V V V B M V B V B V B , % * & O o.o.o.",
"o.  g C z z j 4 m m m m m m m m m m m m m m m m , z z z C f   o.",
"o., n +       < n n n n n n n n n n n n n n n n ,       + m , o.",
"o.p % o.o.o.o.< n x n x c c c c c c c c c c c c > o.o.o.o.% p o.",
"o.$ o.o.o.O * > x x x x x x x x x x x x x x x x ; ; X o.o.o.$ o.",
"o.  o.O a M z $ j x z z z z z z l z z z z z z g % z V a O o.  o.",
"o.o.. n f +   o.O 7 l l l z z z z l l z l l 7 X o.  + f n . o.o.",
"o.o.& V . o.o.o.o.o.O : 6 a g h j h a 6 ; O o.o.o.o.o.  V & o.o.",
"o.o.% 0 o.o.o.o.o.o.o.o.o.o.        o.o.o.o.o.o.o.o.o.o.7 % o.o.",
"o.o.  % o.o.o.o.o.o.o.o.o.o.o.o.o.o.o.o.o.o.o.o.o.o.o.o.&   o.o.",
"o.o.o.  o.o.o.o.o.o.o.o.o.o.o.o.o.o.o.o.o.o.o.o.o.o.o.o.  o.o.o.",
"o.o.o.o.o.o.o.o.o.o.o.o.o.o.o.o.o.o.o.o.o.o.o.o.o.o.o.o.o.o.o.o."
};
