/* XPM */
static char *result[] = {
/* columns rows colors chars-per-pixel */
"32 32 143 2 ",
"   c #060606",
".  c #100800",
"X  c #1B0E00",
"o  c #251300",
"O  c #281400",
"+  c #371E01",
"@  c #3C1F00",
"#  c #2A2507",
"$  c #2E2E0A",
"%  c #322606",
"&  c #362906",
"*  c #3E2C06",
"=  c #312F0A",
"-  c #2D330D",
";  c #32350D",
":  c #3A320B",
">  c #323A0F",
",  c #313C11",
"<  c #2C2F28",
"1  c #313C21",
"2  c #432501",
"3  c #4A2700",
"4  c #432C04",
"5  c #4B2A02",
"6  c #532B01",
"7  c #592E01",
"8  c #533618",
"9  c #633200",
"0  c #683500",
"q  c #6E3800",
"w  c #723A00",
"e  c #783D00",
"r  c #44382B",
"t  c #473D32",
"y  c #344414",
"u  c #374A16",
"i  c #394D16",
"p  c #34441D",
"a  c #36481D",
"s  c #394E18",
"d  c #3F5419",
"f  c #3F591B",
"g  c #474E1F",
"h  c #425B1C",
"j  c #7F4100",
"k  c #734413",
"l  c #47641E",
"z  c #4A671F",
"x  c #4A681F",
"c  c #535C25",
"v  c #4B6A21",
"b  c #576329",
"n  c #5C682B",
"m  c #537523",
"M  c #567A25",
"N  c #597D26",
"B  c #606D2D",
"V  c #595755",
"C  c #5A5A5A",
"Z  c #60615E",
"A  c #696968",
"S  c #717171",
"D  c #787877",
"F  c #7D7D7D",
"G  c #824201",
"H  c #894500",
"J  c #894906",
"K  c #874909",
"L  c #944B00",
"P  c #9B4E00",
"I  c #9D5203",
"U  c #A35200",
"Y  c #AA5600",
"T  c #AE5800",
"R  c #B35B00",
"E  c #B95E00",
"W  c #BE6000",
"Q  c #BD660E",
"!  c #C46300",
"~  c #CA6600",
"^  c #CE6800",
"/  c #C6690A",
"(  c #D36C01",
")  c #DA6E00",
"_  c #D06E09",
"`  c #DD7102",
"'  c #DC740B",
"]  c #CB7318",
"[  c #DD7811",
"{  c #D57B1D",
"}  c #E37300",
"|  c #EA7600",
" . c #ED7902",
".. c #E27608",
"X. c #E37A0D",
"o. c #E97B0A",
"O. c #F47B00",
"+. c #FA7F00",
"@. c #E37C12",
"#. c #5C8127",
"$. c #628A2A",
"%. c #66902C",
"&. c #6A952D",
"*. c #6D992F",
"=. c #74A331",
"-. c #7AAB34",
";. c #87993F",
":. c #81B537",
">. c #83B738",
",. c #86BC3A",
"<. c #88BF3A",
"1. c #FE8000",
"2. c #F3820D",
"3. c #EB8215",
"4. c #E3811C",
"5. c #ED851A",
"6. c #F28514",
"7. c #F0871A",
"8. c #F48B1E",
"9. c #F48D22",
"0. c #8CC53C",
"q. c #8FC93D",
"w. c #91CC3E",
"e. c #A1B64B",
"r. c #98D641",
"t. c #9CDB43",
"y. c #ADC451",
"u. c #B1C852",
"i. c #C6E05C",
"p. c #D3EF62",
"a. c #D6F264",
"s. c #868686",
"d. c #A3A3A2",
"f. c #AAAAA9",
"g. c gray73",
"h. c #C3C3C2",
"j. c #C8C8C8",
"k. c #DBDBDB",
"l. c #E8E8E7",
"z. c gray92",
"x. c #F6F6F5",
"c. c #F8F8F7",
"v. c #FEFEFE",
/* pixels */
"t.t.t.t.,.-.w.t.t.t.t.t.t.t.t.t.t.t.t.t.t.t.t.t.t.w.-.>.t.t.t.t.",
"t.r.m * e 3 *.t.w.t.t.t.t.t.t.t.t.t.t.t.t.t.t.w.t.*.6 e * m r.t.",
"r.y Y 1.1.w <.w.- f t.t.t.t.t.t.t.t.t.t.t.t.h - w.0.q 1.+.Y y r.",
"m T +.+.O.5 w.; ! j %.t.t.t.t.a.a.t.t.t.t.&.e ! > i.5 +.+.1.Y m ",
": +.+.O.O.$ - W } ` y t.t.t.t.t.a.a.t.t.t.y ) } W ; = O.O.O.+.: ",
"3 O. . .) . E ` ` ( : t.t.t.t.t.t.t.t.t.t.: ) ` ` R . )  .O.O.5 ",
": | | } E R ` ) ( ~ y t.t.t.t.t.t.t.t.t.t.y ! ( ) ) R E } | | = ",
"N H } ` ) ( ( ( ^ 0 *.t.=.*.q.t.t.>.*.0.t.*.0 ^ ( ( ) ) ) } L M ",
"t.i G ( ( ( ^ ! 9 z q., s.d.V *.h D d.Z v t.v 9 ! ^ ( ( ( G u r.",
"t.t.$.# 6 7 3 ; &.t.a k.v.v.z.< s.v.v.v.s.&.t.&.; 3 7 6 # $.t.t.",
"t.t.t.M U 2 <.t.t.q.A v.v.g.x.C j.k.k.v.c.p t.t.t.<.2 U M t.t.t.",
"t.t.t.q.4 R u p.t.u.F v.l.  h.V d.C C v.v.1 t.t.r.u E 4 w.t.t.t.",
"t.t.t.t.$.w L , y.y r c.v.l.f.k r k.x.v.h.@ d >., L w $.t.t.t.t.",
"t.t.t.t.t.m 9 Y X R Q t F V k 9.{ r S A 8 5.U X U 9 m t.t.t.t.t.",
"t.t.t.t.t.t.&.# w 2.8.7.] 4.8.8.8.9.{ { 9.9.6.9 # *.t.t.t.t.t.t.",
"t.t.*.i i m <.y ` 5.3.6.5.5.5.7.7.7.7.7.7.5.5.( c ,.m i i *.t.t.",
"t.$.0 ) ( Y 6 2 o.@.3.3.3.3.3.3.3.3.5.5.5.5.5.X.+ 6 U ) ) 0 $.t.",
"w.4 E 5 ; 7 P 9 ..X.X.@.X.@.@.@.@.@.@.@.@.@.@.X.6 Y 7 ; 5 E 4 w.",
"x + h w.t.,., 0 ` ' ` I J / ' X.' ' Q K T { [ ' 7 y :.t.w.h + v ",
"s =.t.t.t.t.,.0 ( ) _ ` ! w 6 6 6 6 K ^ ' ' ' ` 6 w.t.t.t.t.=.u ",
"t.r.M > 4 2 # 9 ( ^ ( ( ( ( ( ( _ _ ( ( _ ( _ _ 6 % 2 * , N t.t.",
"t.f P ) R R U 9 ^ ^ ~ ~ ~ ! ~ ~ ^ ^ ~ ^ ~ ~ ~ ^ 6 R R E ) L h t.",
"w.6 ~ $ v l , 9 ! ! ! ! ! ! ! ! ! ! ! ~ ! ! ! ! 3 y l z = ! 6 w.",
"=.G % q.t.t.:.7 E ! E W W W W W E W W W E W E ! 3 <.t.t.q.& G =.",
"%.o =.r.;., 2 5 E E E E E E W W E E E E E E E E 3 2 , $.r.=.o $.",
"*.s q.> H ^ R o U R R E R R R R R R R R R R R P O R ( H ; q.s *.",
"t.r.u ! L : n #.$ w Y R R T R T R T R R R Y q - $.h = P ! s r.t.",
"t.t.4 ( y t.t.t.r.N ; 2 q H P U U P H q 2 ; $.r.r.r.a.g ( * t.t.",
"t.t.: j =.t.t.t.t.t.t.q.*.M B b f l m *.q.t.t.t.t.a.t.e.e : t.t.",
"t.t.u & t.t.t.a.t.t.t.t.t.t.t.t.t.t.t.t.t.t.t.t.t.t.t.t.& u t.t.",
"t.t.$.y t.t.t.t.t.t.t.t.t.t.t.t.t.t.t.t.t.t.t.t.t.t.t.t.y $.t.t.",
"t.t.r.<.t.t.t.t.t.t.t.t.t.t.t.t.t.t.t.t.t.t.t.t.t.t.t.t.<.r.t.t."
};
