/* XPM */
static char *result[] = {
/* columns rows colors chars-per-pixel */
"32 32 7 1 ",
"  c #1C1117",
". c gray13",
"X c #483B3A",
"o c #62232F",
"O c #775C55",
"+ c #9F294E",
"@ c None",
/* pixels */
"@@@@@@@@@@@@@@@@@@@@@@@@@@@@@@@@",
"@@@@@@@@@@@@@@@@@@@@@@@@@@@@@@@@",
"@@@@@@@@@@@@@@@@@@@@@@@@@@@@@@@@",
"@@@@@@@@@@@@@@@@@@@@@@@@@@@@@@@@",
"@@@@@@@@@@@@@@@@@@@@@@@@@@@@@@@@",
"@@@@@@@@@@@@@@@@@@@@@@@@@@@@@@@@",
"@@@@@@@@@@@@@@@@@@@@@@@@@@@@@@@@",
"@@@@@@@@@@@@@@@@@@@@@@@@@@@@@@@@",
"@@@@@@@@@@@@@@@@@@@@@@@@@@@@@@@@",
"@@@@@@@@@@@@@@@@@@@@@@@@@@@@@@@@",
"@@@@@@@@@@@@@@@@@@@@@@@@@@@@@@@@",
"@@@@@@@@@@@@@@@@@@@@@@@@@@@@@@@@",
"@@@@@@@@@@@@@@@@@@@@@@@@@@@@@@@@",
"@@@@@@@@@@@@@@@@@@@@@@@@@@@@@@@@",
"@@@@@@@@@@@@@@@@@@@@@@@@@@@@@@@@",
"@@@@@@@@@@@@@@@@@@@@@@@@@@@@@@@@",
"@@@@@@@@@@@@@@@@@@@@@@@@@@@@@@@@",
"@@@@@@@@  @@@@@@@@  @@@@@@  @@@@",
"@@@@@@  X @@@@@@@@ X @@@@ X @@@@",
"@@@@@ OX @@@@@@@@@ XX    XX @@@@",
"@@@@@ OX @@@@@@@@@ XOOOOOOO @@@@",
"@@@@ OOX @@@@@@@@@ XO++OOO+ @@@@",
"@@@ OOX @@@@@@@@@@ XO++OOO+ @@@@",
"@@@@ OX @@@@@@@@@@ XOXXOOOX @@@@",
"@@@@ OX @@@@@@@@@  XXOOOOOOO @@@",
"@@@@@ OX         X XXXOOOooO @@@",
"@@@@@@ OXXXXXXXXXOO XXXOOOOO @@@",
"@@@@@@@  XXXXXOOXXOO   XXXXX @@@",
"@@@@@@@@ XXOXXXOOXOOOXX ....@@@@",
"@@@@@@@@ XOOOXXOOOOOOXX @@@@@@@@",
"@@@@@@@@ XOOOOOOOOOOOOO @@@@@@@@",
"@@@@@@@@                @@@@@@@@"
};
