/* XPM */
static char *result[] = {
/* columns rows colors chars-per-pixel */
"32 32 6 1 ",
"  c #1C1117",
". c #483B3A",
"X c #62232F",
"o c #775C55",
"O c #9F294E",
"+ c None",
/* pixels */
"++++++++++++++++++++++++++++++++",
"++++++++++++++++++++++++++++++++",
"++++++++++++++++++++++++++++++++",
"++++++++++++++++++++++++++++++++",
"++++++++++++++++++++++++++++++++",
"++++++++++++++++++++++++++++++++",
"++++++++++++++++++++++++++++++++",
"++++++++++++++++++++++++++++++++",
"++++++++++++++++++++++++++++++++",
"++++++++++++++++++++++++++++++++",
"++++++++++++++++++++++++++++++++",
"++++++++++++++++++++++++++++++++",
"++++++++++++++++++++++++++++++++",
"++++++++++++++++++++++++++++++++",
"++++++++++++++++++++++++++++++++",
"++++++++++++++++++++++++++++++++",
"++++++++++++++++++++++++++++++++",
"+++++++++++++++++++   ++++   +++",
"++++++++++++++++++++ .      . ++",
"++++++++++++++++++++ .ooooooo ++",
"++++++++++++++++++++ .oOOoooO ++",
"+   ++++++++++++++++ .oOOoooO ++",
"+ ..  ++++++++++++++ .o..ooo. ++",
"++ o..    +++++++++  ..ooooooo +",
"+++ oo....         . ...oooXXo +",
"++++ oooo .........oo ...ooooo +",
"+++++    + .....oo..oo   ..... +",
"++++++++++ ..o...oo.ooo..     ++",
"++++++++++ .ooo..oooo.... ++++++",
"+++++++++++    ooooo..    ++++++",
"+++++++++++++++ ..... ++++++++++",
"++++++++++++++++     +++++++++++"
};
