/* XPM */
static char *_11a2135f3114acda4aa79d278f8cdb5eMOL6tcVCjFg9TtZ[] = {
/* columns rows colors chars-per-pixel */
"32 32 7 1 ",
"  c #140C1C",
". c #9CDB43",
"X c #D6F264",
"o c #6DC2CA",
"O c #8595A1",
"+ c #D2AA99",
"@ c #DEEED6",
/* pixels */
"................................",
"................................",
"................................",
"...............XX........X.XX...",
"...XX...........XX..............",
"................................",
"...........          ...........",
".........  @@@@@@@@@@  .........",
"........ O@OOOOO+o@@@@O ........",
"....... o@OO+++oo@@@@@+o X......",
"...... oo@O++oo@@@@@@@+Oo ......",
"..... @@oo@@@@@@@@@@@+ooO@ .....",
".... @@@+ooo@@@@@@@@+ooO@@@ ....",
"... @@@@o++ooooooooooo@o@@@@ ...",
"... +@@oo@+o@@@@@@@oo@OOo@@o ...",
".... ooo@@@+o@@@@@oooOOOooo ....",
"..... oo@@@o+o@@@oo@ooO@OO .....",
"...... o@@o+++O@oo@O@oo@o ......",
"....... ooo++++Oo@O@@oOo .......",
"........ o@@++++@OO@oOO ........",
"......... @@++++OO@@oO .........",
".......... @@+++OO@oO ..........",
"........... @+++O@@o ...........",
"............ @++O@o ............",
"....X..X..... @+O@ .............",
".....X........ @O ..............",
".....XX........  ...............",
"..............X...........XX....",
"..............XX.........X.X....",
".......X........................",
"................................",
"................................"
};
