/* XPM */
static char *a24cde319b6744c8bf4a2e2e8ed8443fHcHDC9ZJJrLc9ulv[] = {
/* columns rows colors chars-per-pixel */
"32 32 8 1 ",
"  c black",
". c #603813",
"X c #BD7432",
"o c #E17E26",
"O c #9CDB43",
"+ c #D6F264",
"@ c #989898",
"# c white",
/* pixels */
"OOOOOOOOOOOOOOOOOOOOOOOOOOOOOOOO",
"OOOOOOOOOOOOOOOOOOOOOOOOOOOOOOOO",
"OOOOOOOOOOOOOOOOOOOOOOOOOOOOOOOO",
"OOOOOOOOOOOOOOO++OOOOOOOO+O++OOO",
"OOO++OOOOOOOOOOO++OOOOOOOOOOOOOO",
"OOOOOOOOOOOOOOOOO OOOOOOOOOOOOOO",
"OOOOOOOOOOOOOOOO o OOOOOOOOOOOOO",
"OOOOOOOOOOOOOOOO .X OOOOOOOOOOOO",
"OOOOOOOOOOOOOOO ..XX OOOOOOOOOOO",
"OOOOOOOOOOOOOO XoXXX OOOO+OOOOOO",
"OOOOOOOOOOOOO ooooXoo OOOOOOOOOO",
"OOOOOOO+O+OO XoooX XXX OOOOOOOOO",
"OOOOOOOO+OO XX  XoX X OOOOOOOOOO",
"OOOOOOOOOO ##X #XX XXX OOOOOOOOO",
"OOOOOOOOOO  #X #XXX o. OOOOOOOOO",
"OOOOOOOOOO @@XXXXo o. OO+OOOOOOO",
"OOOOOOO+OOO  oXXX.o. OO ++OOOOOO",
"OOOOOOOOOOOO  .oooX  O # OOOOOOO",
"OOOOOOOOOOO oXoo  oX  ## OOOOOOO",
"OOOOOOOOOOO .oo oo X  oo OOOOOOO",
"OOOOOOOOOOO oXo oo  o X OOOOOOOO",
"OOOOOOOOOOO .o ### o. X OOOOOOOO",
"OOOOOOOOOOOO . ### . . OOOOOOOOO",
"OOOOOOOOOOO     ##   OOOOOOOOOOO",
"OOOO+OO+OO    o       OOOOOOOOOO",
"OOOOO+OOOO     ..oo   OOOOOOOOOO",
"OOOOO++OOOO          OOOOOOOOOOO",
"OOOOOOOOOOOOO      OOOOOOO++OOOO",
"OOOOOOOOOOOOOO++OOOOOOOOO+O+OOOO",
"OOOOOOO+OOOOOOOOOOOOOOOOOOOOOOOO",
"OOOOOOOOOOOOOOOOOOOOOOOOOOOOOOOO",
"OOOOOOOOOOOOOOOOOOOOOOOOOOOOOOOO"
};
