/* XPM */
static char *_e25c0bdd64b4966e6a6f24e19692647REOIakRdi4bY2gvh[] = {
/* columns rows colors chars-per-pixel */
"32 32 7 1 ",
"  c black",
". c #603813",
"X c #BD7432",
"o c #E17E26",
"O c #9CDB43",
"+ c #D6F264",
"@ c white",
/* pixels */
"OOOOOOOOOOOOOOOOOOOOOOOOOOOOOOOO",
"OOOOOOOOOOOOOOOOOOOOOOOOOOOOOOOO",
"OOOOOOOOOOOOOOOOOOOOOOOOOOOOOOOO",
"OOOOOOOOOOOOOOO++OOOOOOOO+O++OOO",
"OOO++OOOOOOOOOOO++OOOOOOOOOOOOOO",
"OOOOOOOOOOOOOOOOOOOOOOOOOOOOOOOO",
"OOOOOOOOOOOOOOOOOOOOOOOOOOOOOOOO",
"OOOOOOOOOOO  OOOOOO  OOOOOOOOOOO",
"OOOOOOOOOO oX OOOO Xo OOOOOOOOOO",
"OOOOOOOOOO ooX    Xoo OOO+OOOOOO",
"OOOOOOOOOO oooXXXXooo OOOOOOOOOO",
"OOOOOOO+O+ o.XooooX.o OOOOOOOOOO",
"OOOOOOOO+O XooooooooX OOOOOOOOOO",
"OOOOOOOOO XooooooooooX OOOOOOOOO",
"OOOOOOOOOO XooooooooX OOOOOOOOOO",
"OOOOOOOOO XXXooooooXXX O+OOOOOOO",
"OOOOOOO+OO .XXXXXXXX. O+++OOOOOO",
"OOOOOOOOO o  ..XX..  o OOOOOOOOO",
"OOOOOOOO oo oX     o oo OOOOOOOO",
"OOOOOOOO oo ooXXX @  oo OOOOOOOO",
"OOOOOOOO X oooXX @@ o X OOOOOOOO",
"OOOOOOOO @ Xooo oo oo @ OOOOOOOO",
"OOOOOOOOO  XXoo oX oX  OOOOOOOOO",
"OOOOOOOOOOO XXX X XX OOOOOOOOOOO",
"OOOO+OO+OO    . .     OOOOOOOOOO",
"OOOOO+OOOO  o.    .o  OOOOOOOOOO",
"OOOOO++OOOO          OOOOOOOOOOO",
"OOOOOOOOOOOOO      OOOOOOO++OOOO",
"OOOOOOOOOOOOOO++OOOOOOOOO+O+OOOO",
"OOOOOOO+OOOOOOOOOOOOOOOOOOOOOOOO",
"OOOOOOOOOOOOOOOOOOOOOOOOOOOOOOOO",
"OOOOOOOOOOOOOOOOOOOOOOOOOOOOOOOO"
};
