/* XPM */
static char *result[] = {
/* columns rows colors chars-per-pixel */
"32 32 6 1 ",
"  c black",
". c #603813",
"X c #BD7432",
"o c #E17E26",
"O c white",
"+ c None",
/* pixels */
"++++++++++++++++++++++++++++++++",
"++++++++++++++++++++++++++++++++",
"++++++++++++++++++++++++++++++++",
"++++++++++++++++++++++++++++++++",
"++++++++++++++++++++++++++++++++",
"++++++++++++++++++++++++++++++++",
"++++++++++++++++++++++++++++++++",
"+++++++++++  ++++++  +++++++++++",
"++++++++++ oX ++++ Xo ++++++++++",
"++++++++++ ooX    Xoo ++++++++++",
"++++++++++ oooXXXXooo ++++++++++",
"++++++++++ o.XooooX.o ++++++++++",
"++++++++++ XooooooooX ++++++++++",
"+++++++++ XooooooooooX +++++++++",
"++++++++++ XooooooooX ++++++++++",
"+++++++++ XXXooooooXXX +++++++++",
"++++++++++ .XXXXXXXX. ++++++++++",
"+++++++++ o  ..XX..  o +++++++++",
"++++++++ oo oX     o oo ++++++++",
"++++++++ oo ooXXX O  oo ++++++++",
"++++++++ X oooXX OO o X ++++++++",
"++++++++ O Xooo oo oo O ++++++++",
"+++++++++  XXoo oX oX  +++++++++",
"+++++++++++ XXX X XX +++++++++++",
"++++++++++    . .     ++++++++++",
"++++++++++  o.    .o  ++++++++++",
"+++++++++++          +++++++++++",
"+++++++++++++      +++++++++++++",
"++++++++++++++++++++++++++++++++",
"++++++++++++++++++++++++++++++++",
"++++++++++++++++++++++++++++++++",
"++++++++++++++++++++++++++++++++"
};
