/* XPM */
static char *a203c5df1a594efad43bafe88261b26dVqLPfrWO2auRtW3a[] = {
/* columns rows colors chars-per-pixel */
"32 32 8 1 ",
"  c black",
". c #603813",
"X c #BD7432",
"o c #E17E26",
"O c #9CDB43",
"+ c #D6F264",
"@ c #989898",
"# c white",
/* pixels */
"OOOOOOOOOOOOOOOOOOOOOOOOOOOOOOOO",
"OOOOOOOOOOOOOOOOOOOOOOOOOOOOOOOO",
"OOOOOOOOOOOOOOOOOOOOOOOOOOOOOOOO",
"OOOOOOOOOOOOOOO++OOOOOOOO+O++OOO",
"OOO++OOOOOOOOOOO++OOOOOOOOOOOOOO",
"OOOOOOOOOOOOOOOOOOOOOOOOOOOOOOOO",
"OOOOOOOOOOOOOOOOOOOOOOOOOOOOOOOO",
"OOOOOOOOOOO  OOOOOO  OOOOOOOOOOO",
"OOOOOOOOOO Xo OOOO oX OOOOOOOOOO",
"OOOOOOOOOO X.o    o.X OOO+OOOOOO",
"OOOOOOOOOO X..XooX..X OOOOOOOOOO",
"OOOOOOO+O  X.XooooX.X  OOOOOOOOO",
"OOOOOOOO+ oXXXooooXXXo OOOOOOOOO",
"OOOOOOOOOO X..XooX..o OOOOOOOOOO",
"OOOOOOOOO oo.  XX  .oo OOOOOOOOO",
"OOOOOOOOOO .o# XX #o. OO+OOOOOOO",
"OOOOOOO+OO  o# ## #o  O+++OOOOOO",
"OOOOOOOOO .o o####o o. OOOOOOOOO",
"OOOOOOOO oooo @  @ oooo OOOOOOOO",
"OOOOOOOO oo o.    .o oo OOOOOOOO",
"OOOOOOOO o  ooXXXXoo  o OOOOOOOO",
"OOOOOOOO ## oooXXooo ## OOOOOOOO",
"OOOOOOOO # oXXoXXoXXo # OOOOOOOO",
"OOOOOOOOO   oooooooo   OOOOOOOOO",
"OOOO+OO+OO o  o..o  o OOOOOOOOOO",
"OOOOO+OOOO  .o    o.  OOOOOOOOOO",
"OOOOO++OOOO          OOOOOOOOOOO",
"OOOOOOOOOOOOO      OOOOOOO++OOOO",
"OOOOOOOOOOOOOO++OOOOOOOOO+O+OOOO",
"OOOOOOO+OOOOOOOOOOOOOOOOOOOOOOOO",
"OOOOOOOOOOOOOOOOOOOOOOOOOOOOOOOO",
"OOOOOOOOOOOOOOOOOOOOOOOOOOOOOOOO"
};
