/* XPM */
static char *result[] = {
/* columns rows colors chars-per-pixel */
"32 32 7 1 ",
"  c black",
". c #603813",
"X c #BD7432",
"o c #E17E26",
"O c #989898",
"+ c white",
"@ c None",
/* pixels */
"@@@@@@@@@@@@@@@@@@@@@@@@@@@@@@@@",
"@@@@@@@@@@@@@@@@@@@@@@@@@@@@@@@@",
"@@@@@@@@@@@@@@@@@@@@@@@@@@@@@@@@",
"@@@@@@@@@@@@@@@@@@@@@@@@@@@@@@@@",
"@@@@@@@@@@@@@@@@@@@@@@@@@@@@@@@@",
"@@@@@@@@@@@@@@@@@@@@@@@@@@@@@@@@",
"@@@@@@@@@@@@@@@@@@@@@@@@@@@@@@@@",
"@@@@@@@@@@@  @@@@@@  @@@@@@@@@@@",
"@@@@@@@@@@ Xo @@@@ oX @@@@@@@@@@",
"@@@@@@@@@@ X.o    o.X @@@@@@@@@@",
"@@@@@@@@@@ X..XooX..X @@@@@@@@@@",
"@@@@@@@@@  X.XooooX.X  @@@@@@@@@",
"@@@@@@@@@ oXXXooooXXXo @@@@@@@@@",
"@@@@@@@@@@ X..XooX..o @@@@@@@@@@",
"@@@@@@@@@ oo.  XX  .oo @@@@@@@@@",
"@@@@@@@@@@ .o+ XX +o. @@@@@@@@@@",
"@@@@@@@@@@  o+ ++ +o  @@@@@@@@@@",
"@@@@@@@@@ .o o++++o o. @@@@@@@@@",
"@@@@@@@@ oooo O  O oooo @@@@@@@@",
"@@@@@@@@ oo o.    .o oo @@@@@@@@",
"@@@@@@@@ o  ooXXXXoo  o @@@@@@@@",
"@@@@@@@@ ++ oooXXooo ++ @@@@@@@@",
"@@@@@@@@ + oXXoXXoXXo + @@@@@@@@",
"@@@@@@@@@   oooooooo   @@@@@@@@@",
"@@@@@@@@@@ o  o..o  o @@@@@@@@@@",
"@@@@@@@@@@  .o    o.  @@@@@@@@@@",
"@@@@@@@@@@@          @@@@@@@@@@@",
"@@@@@@@@@@@@@      @@@@@@@@@@@@@",
"@@@@@@@@@@@@@@@@@@@@@@@@@@@@@@@@",
"@@@@@@@@@@@@@@@@@@@@@@@@@@@@@@@@",
"@@@@@@@@@@@@@@@@@@@@@@@@@@@@@@@@",
"@@@@@@@@@@@@@@@@@@@@@@@@@@@@@@@@"
};
