/* XPM */
static char *_9eaa57c12784008d1e80608ff317199kwf17oacrDUjujhr[] = {
/* columns rows colors chars-per-pixel */
"32 32 8 1 ",
"  c black",
". c #603813",
"X c #BD7432",
"o c #E17E26",
"O c #9CDB43",
"+ c #D6F264",
"@ c #989898",
"# c white",
/* pixels */
"OOOOOOOOOOOOOOOOOOOOOOOOOOOOOOOO",
"OOOOOOOOOOOOOOOOOOOOOOOOOOOOOOOO",
"OOOOOOOOOOOOOOOOOOOOOOOOOOOOOOOO",
"OOOOOOOOOOOOOOO++OOOOOOOO+O++OOO",
"OOO++OOOOOOOOOOO++OOOOOOOOOOOOOO",
"OOOOOOOOOOOOOO OOOOOOOOOOOOOOOOO",
"OOOOOOOOOOOOO o OOOOOOOOOOOOOOOO",
"OOOOOOOOOOOO X. OOOOOOOOOOOOOOOO",
"OOOOOOOOOOO XX.. OOOOOOOOOOOOOOO",
"OOOOOOOOOOO XXXoX OOOOOOO+OOOOOO",
"OOOOOOOOOO ooXoooo OOOOOOOOOOOOO",
"OOOOOOO+O XXX XoooX OOOOOOOOOOOO",
"OOOOOOOO+O X XoX  XX OOOOOOOOOOO",
"OOOOOOOOO XXX XX# X## OOOOOOOOOO",
"OOOOOOOOO .o XXX# X#  OOOOOOOOOO",
"OOOOOOOOOO .o oXXXX@@ OO+OOOOOOO",
"OOOOOOO+ OO .o.XXXo  OO+++OOOOOO",
"OOOOOOO # O  Xooo.  OOOOOOOOOOOO",
"OOOOOOO ##  Xo  ooXo OOOOOOOOOOO",
"OOOOOOO oo  X oo oo. OOOOOOOOOOO",
"OOOOOOOO X o  oo oXo OOOOOOOOOOO",
"OOOOOOOO X .o ### o. OOOOOOOOOOO",
"OOOOOOOOO . . ### . OOOOOOOOOOOO",
"OOOOOOOOOOO   ##     OOOOOOOOOOO",
"OOOO+OO+OO       o    OOOOOOOOOO",
"OOOOO+OOOO   oo..     OOOOOOOOOO",
"OOOOO++OOOO          OOOOOOOOOOO",
"OOOOOOOOOOOOO      OOOOOOO++OOOO",
"OOOOOOOOOOOOOO++OOOOOOOOO+O+OOOO",
"OOOOOOO+OOOOOOOOOOOOOOOOOOOOOOOO",
"OOOOOOOOOOOOOOOOOOOOOOOOOOOOOOOO",
"OOOOOOOOOOOOOOOOOOOOOOOOOOOOOOOO"
};
